<?xml version="1.0" standalone="no"?>
<!DOCTYPE svg PUBLIC "-//W3C//DTD SVG 20010904//EN"
 "http://www.w3.org/TR/2001/REC-SVG-20010904/DTD/svg10.dtd">
<svg version="1.0" xmlns="http://www.w3.org/2000/svg"
 width="363.000000pt" height="140.000000pt" viewBox="0 0 363.000000 140.000000"
 preserveAspectRatio="xMidYMid meet">

<g transform="translate(0.000000,140.000000) scale(0.100000,-0.100000)"
fill="#000000" stroke="none">
<path d="M2167 784 c-13 -13 -7 -52 8 -58 27 -10 46 5 43 33 -3 26 -35 41 -51
25z"/>
<path d="M2310 600 l0 -190 30 0 c21 0 30 5 30 16 0 15 2 15 26 -1 30 -19 102
-22 134 -5 55 29 79 140 44 200 -36 60 -126 80 -178 39 l-26 -20 0 75 0 76
-30 0 -30 0 0 -190z m197 8 c31 -29 32 -99 3 -128 -31 -31 -93 -27 -119 6 -65
83 40 194 116 122z"/>
<path d="M414 760 c-40 -13 -64 -40 -70 -82 -8 -48 24 -83 106 -112 35 -13 70
-33 78 -44 12 -18 11 -23 -7 -41 -28 -28 -67 -26 -126 4 -27 13 -50 23 -51 22
-17 -23 -22 -46 -11 -55 76 -61 222 -56 257 7 14 27 12 83 -4 104 -8 10 -49
33 -92 50 -80 33 -98 53 -74 82 16 19 71 19 117 0 20 -8 37 -14 38 -13 1 2 7
13 14 25 10 20 8 24 -19 38 -39 20 -115 27 -156 15z"/>
<path d="M1412 759 c-42 -13 -75 -63 -67 -104 7 -40 44 -71 107 -90 84 -24
109 -59 66 -89 -32 -22 -67 -20 -123 9 -27 13 -50 23 -51 22 -17 -23 -22 -46
-11 -55 75 -59 223 -55 257 7 19 37 12 90 -16 116 -15 14 -31 25 -35 25 -30 0
-119 44 -124 61 -15 46 50 64 122 34 20 -8 37 -14 38 -13 1 2 7 13 13 24 14
27 3 37 -53 53 -47 13 -78 13 -123 0z"/>
<path d="M660 576 c0 -98 2 -106 26 -135 22 -27 32 -31 74 -31 33 0 55 6 74
21 l26 20 0 -20 c0 -17 6 -21 30 -21 l30 0 0 135 0 135 -29 0 -29 0 -4 -91
c-3 -81 -6 -93 -27 -110 -30 -25 -66 -24 -91 1 -17 17 -20 33 -20 110 l0 90
-30 0 -30 0 0 -104z"/>
<path d="M1010 495 l0 -185 30 0 30 0 0 65 0 65 25 -16 c32 -21 106 -20 140 2
78 51 69 199 -15 241 -46 23 -120 12 -142 -21 -5 -6 -8 -1 -8 12 0 18 -6 22
-30 22 l-30 0 0 -185z m195 110 c31 -30 33 -82 4 -119 -26 -33 -88 -37 -119
-6 -28 28 -27 96 2 127 30 32 81 31 113 -2z"/>
<path d="M1724 670 c-11 -4 -33 -22 -47 -40 -49 -57 -31 -172 31 -204 50 -26
114 -24 161 5 32 19 32 21 16 39 -16 17 -20 18 -38 5 -25 -17 -80 -20 -107 -5
-26 14 -43 71 -31 103 20 52 76 70 131 42 27 -14 30 -14 40 4 15 28 14 31 -25
47 -38 15 -98 18 -131 4z"/>
<path d="M1960 545 l0 -135 30 0 30 0 0 83 c0 74 3 86 23 104 12 12 31 23 42
25 13 2 21 12 23 31 4 34 -23 37 -62 6 l-26 -20 0 20 c0 17 -6 21 -30 21 l-30
0 0 -135z"/>
<path d="M2160 545 l0 -135 30 0 30 0 0 135 0 135 -30 0 -30 0 0 -135z"/>
<path d="M2692 660 c-43 -26 -66 -80 -59 -139 4 -36 13 -52 41 -78 31 -29 42
-33 92 -33 35 0 67 6 85 17 33 19 35 26 15 42 -10 8 -20 8 -42 -4 -35 -18 -58
-19 -87 -3 -23 12 -46 37 -47 51 0 4 45 7 99 7 55 0 102 4 106 9 12 21 -15 97
-45 124 -38 34 -108 37 -158 7z m130 -47 c10 -9 18 -24 18 -35 0 -16 -9 -18
-75 -18 -60 0 -75 3 -75 15 0 47 92 74 132 38z"/>
</g>
</svg>
